HIERARCHY
ROOT Hips
{
	OFFSET	0.00	0.00	0.00
	CHANNELS 6 Xposition Yposition Zposition Zrotation Xrotation Yrotation
	JOINT LeftUpLeg
	{
		OFFSET	 0.126116	-0.014019	-0.065224
		CHANNELS 3 Zrotation Xrotation Yrotation
		JOINT LeftLeg
		{
			OFFSET	 0.000000	 0.000000	 0.569914
			CHANNELS 3 Zrotation Xrotation Yrotation
			JOINT LeftFoot
			{
				OFFSET	 0.000000	 0.000000	 0.544423
				CHANNELS 3 Zrotation Xrotation Yrotation
				JOINT LeftToeBase
				{
					OFFSET	 0.000000	 0.000000	 0.207117
					CHANNELS 3 Zrotation Xrotation Yrotation
					End Site
					{
						OFFSET	 0.000000	 0.000000	 0.207117
					}
				}
			}
		}
	}
	JOINT RightUpLeg
	{
		OFFSET	-0.124023	-0.008373	-0.065224
		CHANNELS 3 Zrotation Xrotation Yrotation
		JOINT RightLeg
		{
			OFFSET	 0.000000	 0.000000	 0.570047
			CHANNELS 3 Zrotation Xrotation Yrotation
			JOINT RightFoot
			{
				OFFSET	 0.000000	 0.000000	 0.544354
				CHANNELS 3 Zrotation Xrotation Yrotation
				JOINT RightToeBase
				{
					OFFSET	 0.000000	 0.000000	 0.207540
					CHANNELS 3 Zrotation Xrotation Yrotation
					End Site
					{
						OFFSET	 0.000000	 0.000000	 0.207540
					}
				}
			}
		}
	}
	JOINT Spine
	{
		OFFSET	 0.000184	-0.007763	 0.117403
		CHANNELS 3 Zrotation Xrotation Yrotation
		JOINT Spine1
		{
			OFFSET	 0.000000	 0.000000	 0.137269
			CHANNELS 3 Zrotation Xrotation Yrotation
			JOINT Spine2
			{
				OFFSET	 0.000000	 0.000000	 0.156879
				CHANNELS 3 Zrotation Xrotation Yrotation
				JOINT LeftShoulder
				{
					OFFSET	 0.080501	-0.002496	 0.160144
					CHANNELS 3 Zrotation Xrotation Yrotation
					JOINT LeftArm
					{
						OFFSET	 0.000000	 0.000000	 0.164363
						CHANNELS 3 Zrotation Xrotation Yrotation
						JOINT LeftForeArm
						{
							OFFSET	 0.000000	 0.000000	 0.364576
							CHANNELS 3 Zrotation Xrotation Yrotation
							JOINT LeftHand
							{
								OFFSET	 0.000000	 0.000000	 0.360812
								CHANNELS 3 Zrotation Xrotation Yrotation
								JOINT LeftHandIndex1
								{
									OFFSET	 0.000000	 0.000000	 0.086006
									CHANNELS 3 Zrotation Xrotation Yrotation
									JOINT LeftHandIndex2
									{
										OFFSET	 0.000000	 0.000000	 0.047237
										CHANNELS 3 Zrotation Xrotation Yrotation
										JOINT LeftHandIndex3
										{
											OFFSET	-0.004284	-0.000551	 0.038165
											CHANNELS 3 Zrotation Xrotation Yrotation
											End Site
											{
												OFFSET	-0.004284	-0.000551	 0.038165
											}
										}
									}
								}
							}
						}
					}
				}
				JOINT Neck
				{
					OFFSET	 0.000000	 0.000000	 0.176489
					CHANNELS 3 Zrotation Xrotation Yrotation
					JOINT Head
					{
						OFFSET	 0.000000	-0.001747	 0.077940
						CHANNELS 3 Zrotation Xrotation Yrotation
						End Site
						{
							OFFSET	 0.000000	-0.001747	 0.077940
						}
					}
				}
				JOINT RightShoulder
				{
					OFFSET	-0.080363	 0.000306	 0.159706
					CHANNELS 3 Zrotation Xrotation Yrotation
					JOINT RightArm
					{
						OFFSET	 0.000000	 0.000000	 0.164196
						CHANNELS 3 Zrotation Xrotation Yrotation
						JOINT RightForeArm
						{
							OFFSET	 0.000000	 0.000000	 0.365611
							CHANNELS 3 Zrotation Xrotation Yrotation
							JOINT RightHand
							{
								OFFSET	 0.000000	 0.000000	 0.360648
								CHANNELS 3 Zrotation Xrotation Yrotation
								JOINT RightHandIndex1
								{
									OFFSET	 0.000000	 0.000000	 0.069977
									CHANNELS 3 Zrotation Xrotation Yrotation
									JOINT RightHandIndex2
									{
										OFFSET	 0.000000	 0.000000	 0.052305
										CHANNELS 3 Zrotation Xrotation Yrotation
										JOINT RightHandIndex3
										{
											OFFSET	 0.009002	-0.000782	 0.042196
											CHANNELS 3 Zrotation Xrotation Yrotation
											End Site
											{
												OFFSET	 0.009002	-0.000782	 0.042196
											}
										}
									}
								}
							}
						}
					}
				}
			}
		}
	}
}
MOTION
Frames:    8
Frame Time: 0.03333334
-0.448202	-0.033101	 1.272721	 179.842400	 0.353643	 0.582923	-37.888320	-3.943407	-175.968000	 8.311608	-11.162510	 1.509245	-22.451970	 69.656910	-1.815318	-2.385833	 28.452760	 0.000004	 39.476270	-4.833588	 175.296200	-7.453676	-10.574880	-1.660480	 23.625130	 69.275390	 0.720686	 2.384659	 28.388700	-0.000001	-4.514493	 5.650188	 0.026428	-1.435810	-9.208443	-3.240906	 5.463667	 13.582700	 2.939454	-91.776260	 78.527400	-179.999900	-8.997306	-12.623480	-2.986432	 8.465992	-2.583927	-13.732690	-5.018555	-4.201575	-4.992485	-4.130319	 21.525730	 0.991547	-5.167930	 0.731704	 3.519349	-1.378229	 35.397820	-2.634230	-0.000002	-3.783157	-0.089647	-9.346718	-8.649373	-0.708394	 89.782030	 78.203850	-180.000000	 5.956513	-12.252450	-0.522485	-12.320820	-2.263279	 19.773990	 7.410157	-5.911081	 22.074650	 5.716227	 19.173190	-3.685159	 5.027444	 0.246877	-9.377972	-2.350882	 35.473990	 5.254307
-0.451274	-0.033619	 1.271412	-179.810900	-4.149532	 2.657949	-3.899146	-0.887279	-179.005300	-9.080154	-19.400480	-3.229786	 30.055490	 75.627450	-40.990290	-2.385833	 28.452760	 0.000004	 42.999830	-3.568403	 170.999200	 3.165012	-12.613410	 0.358733	-7.932736	 64.372780	 24.453190	 2.384659	 28.388700	-0.000001	-2.702515	 9.579256	-3.414495	-0.754829	 1.981624	-4.540143	 3.403333	-4.388884	 8.052633	-91.776150	 78.527400	 180.000000	-60.864400	 4.131081	 12.075080	-0.504153	-2.512700	-59.452260	-0.571102	-12.656930	-2.040146	-4.130319	 21.525730	 0.991547	-5.167930	 0.731704	 3.519349	-1.378229	 35.397820	-2.634230	-3.054410	 1.062382	 2.000053	-14.051090	-28.477480	-14.919510	 89.782080	 78.203900	 180.000000	 13.898540	-5.699405	-16.428750	-12.052100	-10.733530	 60.562970	 0.323541	 49.918220	 111.913700	 5.716227	 19.173190	-3.685159	 5.027444	 0.246877	-9.377972	-2.350882	 35.473990	 5.254307
-0.451946	-0.034577	 1.268824	-179.450300	-4.047601	 2.804254	-4.123286	-3.974406	-178.737500	-9.957609	-26.470350	-4.731316	 40.239730	 79.457230	-51.105480	-2.385833	 28.452760	 0.000004	 41.793130	-7.198594	 171.835600	 3.610644	-21.429840	 0.763160	-9.464195	 69.339250	 25.645220	 2.384659	 28.388700	-0.000001	-3.688468	 9.460582	-3.373957	-1.394906	 2.830333	-5.217317	 3.453342	-4.957248	 8.571555	-91.776240	 78.527380	-180.000000	-58.867270	 12.930570	 28.832240	-2.376214	-2.834168	-97.837440	-0.619828	-12.567330	-2.108046	-4.130319	 21.525730	 0.991547	-5.167930	 0.731704	 3.519349	-1.378229	 35.397820	-2.634230	-3.148217	 1.175725	 2.305893	-14.319990	-28.738730	-16.020420	 89.782090	 78.203900	 180.000000	 12.468290	 3.430818	-24.342880	-4.903305	-12.019270	 95.501150	 21.918830	 44.712910	 74.327630	 5.716227	 19.173190	-3.685159	 5.027444	 0.246877	-9.377972	-2.350882	 35.473990	 5.254307
-0.454967	-0.038031	 1.259833	-178.373700	-3.503287	 2.525832	-6.307696	-10.345530	-176.595300	-12.317550	-41.713780	-8.650769	 104.092500	 83.568890	-115.517500	-2.385833	 28.452760	 0.000004	 39.719470	-12.966210	 175.642100	 4.583600	-38.497620	 1.906493	-8.881788	 80.837620	 23.838160	 2.384659	 28.388700	-0.000001	-7.142781	 8.893818	-2.772297	-3.590733	 4.868139	-6.064456	 3.543269	-5.472898	 9.152544	-91.776120	 78.527400	 180.000000	 37.154920	 53.408740	-57.859120	-3.378186	-2.625667	-117.943100	-0.520033	-12.552840	-2.114389	-4.130319	 21.525730	 0.991547	-5.167930	 0.731704	 3.519349	-1.378229	 35.397820	-2.634230	-3.019244	 0.238132	 1.278797	-13.861850	-27.355130	-13.909860	 89.782100	 78.203900	 180.000000	-48.911650	 44.551900	 57.491070	-4.879960	-10.168220	 96.611970	-5.886294	 6.992785	 15.008310	 5.716227	 19.173190	-3.685159	 5.027444	 0.246877	-9.377972	-2.350882	 35.473990	 5.254307
-0.461334	-0.040892	 1.255810	-177.264200	-3.582350	 2.125445	-8.959427	-11.964400	-174.752400	-13.082630	-46.053660	-9.913462	 125.443200	 82.314970	-137.290700	-2.385833	 28.452760	 0.000004	 37.713980	-13.745800	 177.787200	 5.373808	-43.589120	 2.657402	-6.888991	 84.098370	 21.211260	 2.384659	 28.388700	-0.000001	-8.890064	 8.653882	-2.569920	-4.339787	 6.097763	-4.912354	 3.297205	-5.870835	 8.591864	-91.776200	 78.527310	-180.000000	 55.740360	 44.589570	-95.815630	-1.470159	-2.865755	-79.787350	-0.597370	-12.217210	-2.131619	-4.130319	 21.525730	 0.991547	-5.167930	 0.731704	 3.519349	-1.378229	 35.397820	-2.634230	-3.383390	 0.542249	 0.921005	-14.022280	-27.209460	-13.065740	 89.782070	 78.203900	-180.000000	-69.394500	 38.726480	 103.259900	-13.212300	-7.755988	 47.052090	-13.504230	-9.186364	 26.125770	 5.716227	 19.173190	-3.685159	 5.027444	 0.246877	-9.377972	-2.350882	 35.473990	 5.254307
-0.475654	-0.044212	 1.255620	-175.648800	-4.214596	 2.240146	-12.988350	-11.119490	-173.562800	-11.919650	-44.102360	-8.757323	 111.378000	 83.324360	-123.510100	-2.385833	 28.452760	 0.000004	 34.486380	-13.309050	 178.274000	 6.276975	-43.941730	 3.303064	-6.185881	 81.639260	 20.053620	 2.384659	 28.388700	-0.000001	-9.192904	 9.117690	-2.716469	-3.388537	 5.752305	-2.779833	 2.994032	-5.654747	 7.499994	-91.776150	 78.527380	 180.000000	 46.722660	 48.199860	-74.856090	-2.244787	-2.873316	-95.145520	-0.644920	-11.750630	-2.149539	-4.130319	 21.525730	 0.991547	-5.167930	 0.731704	 3.519349	-1.378229	 35.397820	-2.634230	-4.098484	 2.256680	 2.453528	-14.838740	-28.076320	-16.281630	 89.782070	 78.203870	-180.000000	-57.288910	 43.891520	 79.331790	-8.571392	-10.096940	 75.912660	-9.047290	-0.683788	 16.243530	 5.716227	 19.173190	-3.685159	 5.027444	 0.246877	-9.377972	-2.350882	 35.473990	 5.254307
-0.485162	-0.044778	 1.254542	-174.241600	-4.117914	 2.037549	-16.325800	-10.810050	-172.037600	-10.734860	-42.357920	-7.665102	 93.316880	 83.953600	-105.785300	-2.385833	 28.452760	 0.000004	 33.474320	-15.559380	-179.680800	 7.272280	-48.819330	 4.333692	-0.414838	 82.031470	 13.667660	 2.384659	 28.388700	-0.000001	-8.714828	 9.480032	-2.015046	-1.588153	 2.848170	-1.370071	 2.555829	-3.357575	 6.369443	-91.776270	 78.527380	-179.999900	 53.914490	 44.487420	-80.664490	-1.772829	-3.015271	-85.951290	-0.518030	-11.394200	-2.163085	-4.130319	 21.525730	 0.991547	-5.167930	 0.731704	 3.519349	-1.378229	 35.397820	-2.634230	-4.060263	 0.736773	 1.267021	-14.220610	-25.757470	-13.037180	 89.782070	 78.203890	-180.000000	-59.043280	 43.573920	 85.356790	-7.623581	-10.345790	 81.315530	-9.105019	-1.389100	 3.264556	 5.716227	 19.173190	-3.685159	 5.027444	 0.246877	-9.377972	-2.350882	 35.473990	 5.254307
-0.487065	-0.044836	 1.256188	-172.870700	-4.152338	 1.413770	-19.934680	-10.314780	-170.675800	-9.583164	-40.615130	-6.643820	 76.087330	 84.048990	-88.920520	-2.385833	 28.452760	 0.000004	 35.536460	-17.665740	-177.224200	 5.995481	-51.493680	 3.502924	 14.560290	 81.716150	-1.356821	 2.384659	 28.388700	-0.000001	-7.372469	 9.904172	-1.672063	 0.864148	 2.226167	 1.576152	 2.355240	-2.804193	 4.631864	-91.776160	 78.527350	 180.000000	 57.099900	 42.298970	-88.121930	-1.654837	-3.094850	-83.884700	-0.440003	-11.046250	-2.182597	-4.130319	 21.525730	 0.991547	-5.167930	 0.731704	 3.519349	-1.378229	 35.397820	-2.634230	-4.049420	-0.618494	 0.535378	-13.848030	-23.977810	-10.842650	 89.782120	 78.203870	 180.000000	-63.680980	 42.127170	 90.735890	-8.523998	-10.330600	 76.465770	-12.097640	-9.736614	 1.615888	 5.716227	 19.173190	-3.685159	 5.027444	 0.246877	-9.377972	-2.350882	 35.473990	 5.254307
